<svg width="50" height="50" viewBox="0 0 50 50" fill="none" xmlns="http://www.w3.org/2000/svg">
<g id="Star">
<path id="Vector" d="M25.8594 37.2461L35.7031 43.4961C36.9726 44.2969 38.5351 43.1055 38.1641 41.6407L35.3125 30.4297C35.2354 30.119 35.2476 29.7928 35.3479 29.4887C35.4481 29.1846 35.6321 28.915 35.8789 28.711L44.707 21.3477C45.8594 20.3907 45.2734 18.4571 43.7695 18.3594L32.2461 17.6172C31.9317 17.5989 31.6294 17.4895 31.3762 17.3022C31.123 17.1149 30.9298 16.8578 30.8203 16.5625L26.5234 5.74224C26.4097 5.42955 26.2025 5.15943 25.9299 4.96855C25.6574 4.77768 25.3327 4.67529 25 4.67529C24.6673 4.67529 24.3426 4.77768 24.07 4.96855C23.7975 5.15943 23.5903 5.42955 23.4766 5.74224L19.1797 16.5625C19.0702 16.8578 18.877 17.1149 18.6238 17.3022C18.3706 17.4895 18.0683 17.5989 17.7539 17.6172L6.23046 18.3594C4.72655 18.4571 4.14062 20.3907 5.29296 21.3477L14.1211 28.711C14.3678 28.915 14.5519 29.1846 14.6521 29.4887C14.7523 29.7928 14.7646 30.119 14.6875 30.4297L12.0508 40.8204C11.6016 42.5782 13.4766 44.004 14.9805 43.0469L24.1406 37.2461C24.3975 37.0828 24.6956 36.9961 25 36.9961C25.3044 36.9961 25.6025 37.0828 25.8594 37.2461Z" fill="#E13C5A" stroke="#E13C5A" stroke-width="3.125" stroke-linecap="round" stroke-linejoin="round"/>
</g>
</svg>
