<svg width="260" height="95" viewBox="0 0 260 95" fill="none" xmlns="http://www.w3.org/2000/svg">
<path d="M250.12 76.0101H167.398C173.523 67.8898 176.83 57.9927 176.82 47.8208C176.82 35.3599 171.87 23.4094 163.059 14.5982C154.247 5.78695 142.297 0.836914 129.836 0.836914C117.376 0.836914 105.425 5.78695 96.6134 14.5982C87.8023 23.4094 82.8523 35.3599 82.8523 47.8208C82.8523 50.3131 83.8423 52.7032 85.6046 54.4655C87.3669 56.2277 89.7571 57.2178 92.2493 57.2178C94.7419 57.2178 97.1322 56.2277 98.894 54.4655C100.657 52.7032 101.646 50.3131 101.646 47.8208C101.646 42.2452 103.299 36.7949 106.397 32.1589C109.495 27.5229 113.897 23.9096 119.048 21.7757C124.2 19.6419 129.868 19.0835 135.336 20.1712C140.804 21.2588 145.828 23.9436 149.77 27.886C153.712 31.8284 156.397 36.8514 157.486 42.3199C158.573 47.7882 158.015 53.4564 155.881 58.6072C153.747 63.7583 150.135 68.1618 145.498 71.2595C140.862 74.3571 135.412 76.0101 129.837 76.0101H9.5624C8.32052 75.9979 7.08849 76.2315 5.93756 76.6986C4.78662 77.1649 3.73962 77.8553 2.85706 78.7287C1.9745 79.603 1.27388 80.6424 0.795752 81.7888C0.317618 82.9352 0.0714417 84.165 0.0714417 85.4071C0.0714417 86.6482 0.317618 87.8781 0.795752 89.0245C1.27388 90.1708 1.9745 91.2103 2.85706 92.0846C3.73962 92.958 4.78662 93.6484 5.93756 94.1146C7.08849 94.5818 8.32052 94.8154 9.5624 94.8032H250.12C252.596 94.7788 254.962 93.7779 256.704 92.018C258.446 90.259 259.423 87.8828 259.423 85.4071C259.423 82.9305 258.446 80.5543 256.704 78.7953C254.962 77.0354 252.596 76.0344 250.12 76.0101Z" fill="url(#paint0_linear_1_253)"/>
<defs>
<linearGradient id="paint0_linear_1_253" x1="0.0714417" y1="47.8203" x2="259.423" y2="47.8203" gradientUnits="userSpaceOnUse">
<stop stop-color="#DD1B60"/>
<stop offset="0.243" stop-color="#DE1D5B"/>
<stop offset="0.495" stop-color="#E2254F"/>
<stop offset="0.751" stop-color="#EA313A"/>
<stop offset="1" stop-color="#F4431F"/>
</linearGradient>
</defs>
</svg>
