<svg width="170" height="95" viewBox="0 0 170 95" fill="none" xmlns="http://www.w3.org/2000/svg">
<path d="M9.66674 94.2168C10.9007 94.2168 12.1227 93.974 13.2628 93.5019C14.4029 93.0297 15.4388 92.3376 16.3114 91.465C17.184 90.5926 17.8762 89.5567 18.3485 88.4166C18.8207 87.2766 19.0638 86.0547 19.0638 84.8207C19.0638 67.3754 25.9939 50.6446 38.3296 38.309C50.665 25.9733 67.3962 19.0432 84.8413 19.0432C102.286 19.0432 119.018 25.9733 131.353 38.309C143.689 50.6446 150.619 67.3754 150.619 84.8207C150.643 87.2965 151.644 89.6625 153.404 91.4046C155.163 93.1466 157.539 94.1239 160.016 94.1239C162.492 94.1239 164.868 93.1466 166.627 91.4046C168.387 89.6625 169.388 87.2965 169.412 84.8207C169.412 73.7147 167.224 62.7175 162.975 52.4569C158.724 42.1963 152.495 32.8733 144.642 25.0201C136.788 17.167 127.465 10.9376 117.205 6.68756C106.944 2.43748 95.9476 0.25 84.8413 0.25C73.735 0.25 62.7385 2.43748 52.4774 6.68756C42.2169 10.9376 32.8939 17.167 25.0408 25.0201C17.1877 32.8733 10.9582 42.1963 6.70813 52.4569C2.45811 62.7175 0.27063 73.7147 0.27063 84.8207C0.27063 87.3127 1.26062 89.7026 3.02267 91.4647C4.78482 93.2268 7.17475 94.2168 9.66674 94.2168Z" fill="url(#paint0_linear_1_252)"/>
<defs>
<linearGradient id="paint0_linear_1_252" x1="0.27063" y1="47.2334" x2="169.412" y2="47.2334" gradientUnits="userSpaceOnUse">
<stop stop-color="#DD1B60"/>
<stop offset="0.243" stop-color="#DE1D5B"/>
<stop offset="0.495" stop-color="#E2254F"/>
<stop offset="0.751" stop-color="#EA313A"/>
<stop offset="1" stop-color="#F4431F"/>
</linearGradient>
</defs>
</svg>
