<svg width="56" height="56" viewBox="0 0 56 56" fill="none" xmlns="http://www.w3.org/2000/svg">
<g id="ToggleRight">
<path id="Vector" d="M38.5 14H17.5C9.76801 14 3.5 20.268 3.5 28C3.5 35.732 9.76801 42 17.5 42H38.5C46.232 42 52.5 35.732 52.5 28C52.5 20.268 46.232 14 38.5 14Z" fill="#56E6A5" stroke="#56E6A5" stroke-width="3.5" stroke-linecap="round" stroke-linejoin="round"/>
<g id="Vector_2" filter="url(#filter0_d_1_65)">
<path d="M38.5 35C42.366 35 45.5 31.866 45.5 28C45.5 24.134 42.366 21 38.5 21C34.634 21 31.5 24.134 31.5 28C31.5 31.866 34.634 35 38.5 35Z" fill="white"/>
<path d="M38.5 35C42.366 35 45.5 31.866 45.5 28C45.5 24.134 42.366 21 38.5 21C34.634 21 31.5 24.134 31.5 28C31.5 31.866 34.634 35 38.5 35Z" stroke="white" stroke-width="3.5" stroke-linecap="round" stroke-linejoin="round"/>
</g>
</g>
<defs>
<filter id="filter0_d_1_65" x="22.75" y="14.25" width="31.5" height="31.5" filterUnits="userSpaceOnUse" color-interpolation-filters="sRGB">
<feFlood flood-opacity="0" result="BackgroundImageFix"/>
<feColorMatrix in="SourceAlpha" type="matrix" values="0 0 0 0 0 0 0 0 0 0 0 0 0 0 0 0 0 0 127 0" result="hardAlpha"/>
<feOffset dy="2"/>
<feGaussianBlur stdDeviation="3.5"/>
<feComposite in2="hardAlpha" operator="out"/>
<feColorMatrix type="matrix" values="0 0 0 0 0 0 0 0 0 0 0 0 0 0 0 0 0 0 0.13 0"/>
<feBlend mode="normal" in2="BackgroundImageFix" result="effect1_dropShadow_1_65"/>
<feBlend mode="normal" in="SourceGraphic" in2="effect1_dropShadow_1_65" result="shape"/>
</filter>
</defs>
</svg>
